<svg id="Capa_1" data-name="Capa 1" xmlns="http://www.w3.org/2000/svg" viewBox="0 0 264.34 391.21"><defs><style>.cls-1{font-size:77.22px;fill:#12192c;}.cls-1,.cls-3{font-family:Titillium-Bold, Titillium Bold;font-weight:700;}.cls-2{letter-spacing:-0.02em;}.cls-3{font-size:34.62px;}.cls-3,.cls-6{fill:#e13f13;}.cls-4{fill:#ec8802;}.cls-5{fill:#ea571a;}</style></defs><text class="cls-1" transform="translate(8.24 345.72)"><tspan class="cls-2">C</tspan><tspan x="43.16" y="0">OMBE</tspan></text><text class="cls-3" transform="translate(64.63 382.55)">FINANCE</text><path class="cls-4" d="M396.32,382.6a25.33,25.33,0,1,0,25.33,25.33A25.33,25.33,0,0,0,396.32,382.6Z" transform="translate(-157.32 -277.29)"/><circle class="cls-4" cx="344.26" cy="309.53" r="25.33" transform="translate(-219.22 -189.92) rotate(-13.28)"/><path class="cls-4" d="M336.13,360.18a16.21,16.21,0,1,0,22.14,5.89A16.2,16.2,0,0,0,336.13,360.18Z" transform="translate(-157.32 -277.29)"/><path class="cls-4" d="M397.64,354.17a9.71,9.71,0,1,0-13.31-3.4A9.71,9.71,0,0,0,397.64,354.17Z" transform="translate(-157.32 -277.29)"/><path class="cls-4" d="M281.35,329.31a16.21,16.21,0,1,0,22.15,5.89A16.21,16.21,0,0,0,281.35,329.31Z" transform="translate(-157.32 -277.29)"/><path class="cls-4" d="M294.44,295.36a9.71,9.71,0,1,0-13.3-3.4A9.73,9.73,0,0,0,294.44,295.36Z" transform="translate(-157.32 -277.29)"/><path class="cls-5" d="M234.71,284.2A25.33,25.33,0,1,0,260,309.53,25.34,25.34,0,0,0,234.71,284.2Z" transform="translate(-157.32 -277.29)"/><path class="cls-5" d="M226.58,360.18a16.21,16.21,0,1,0,22.15,5.89A16.2,16.2,0,0,0,226.58,360.18Z" transform="translate(-157.32 -277.29)"/><path class="cls-5" d="M344.26,481a25.33,25.33,0,1,0,25.32,25.33A25.33,25.33,0,0,0,344.26,481Z" transform="translate(-157.32 -277.29)"/><path class="cls-5" d="M352.39,455.68a16.21,16.21,0,1,0-22.15-5.89A16.2,16.2,0,0,0,352.39,455.68Z" transform="translate(-157.32 -277.29)"/><path class="cls-5" d="M181.33,337.47a9.71,9.71,0,1,0,13.31,3.39A9.7,9.7,0,0,0,181.33,337.47Z" transform="translate(-157.32 -277.29)"/><path class="cls-5" d="M401,465.09a9.71,9.71,0,1,0-3.39,13.3A9.72,9.72,0,0,0,401,465.09Z" transform="translate(-157.32 -277.29)"/><path class="cls-5" d="M289.49,383.2a24.73,24.73,0,1,0,24.73,24.73A24.74,24.74,0,0,0,289.49,383.2Z" transform="translate(-157.32 -277.29)"/><path class="cls-6" d="M182.65,382.6A25.33,25.33,0,1,0,208,407.93,25.33,25.33,0,0,0,182.65,382.6Z" transform="translate(-157.32 -277.29)"/><path class="cls-6" d="M234.71,481A25.33,25.33,0,1,0,260,506.33,25.34,25.34,0,0,0,234.71,481Z" transform="translate(-157.32 -277.29)"/><path class="cls-6" d="M242.84,455.68a16.21,16.21,0,1,0-22.14-5.89A16.2,16.2,0,0,0,242.84,455.68Z" transform="translate(-157.32 -277.29)"/><path class="cls-6" d="M181.33,461.69a9.71,9.71,0,1,0,13.31,3.4A9.71,9.71,0,0,0,181.33,461.69Z" transform="translate(-157.32 -277.29)"/><path class="cls-6" d="M303.5,464.4a16.2,16.2,0,1,0-5.88,22.15A16.21,16.21,0,0,0,303.5,464.4Z" transform="translate(-157.32 -277.29)"/><path class="cls-6" d="M284.53,520.5a9.71,9.71,0,1,0,13.31,3.39A9.71,9.71,0,0,0,284.53,520.5Z" transform="translate(-157.32 -277.29)"/></svg>