<svg id="Capa_1" data-name="Capa 1" xmlns="http://www.w3.org/2000/svg" viewBox="0 0 297.59 405.19"><defs><style>.cls-1{font-size:77.22px;fill:#12192c;}.cls-1,.cls-3{font-family:Titillium-Bold, Titillium Bold;font-weight:700;}.cls-2{letter-spacing:-0.02em;}.cls-3{font-size:37.02px;}.cls-3,.cls-7{fill:#a21916;}.cls-4{fill:#751d61;}.cls-5{fill:#e52320;}.cls-6{fill:#ea5558;}.cls-8{fill:#50267d;}</style></defs><text class="cls-1" transform="translate(24.86 346.55)"><tspan class="cls-2">C</tspan><tspan x="43.16" y="0">OMBE</tspan></text><text class="cls-3" transform="translate(98.68 395.94)">SALES</text><circle class="cls-4" cx="210.56" cy="131.09" r="19.05"/><path class="cls-5" d="M256.89,414.51a17.15,17.15,0,1,0,0-24.25A17.16,17.16,0,0,0,256.89,414.51Z" transform="translate(-148.84 -218.35)"/><path class="cls-5" d="M314.14,390.26a17.15,17.15,0,1,0,24.25,0A17.14,17.14,0,0,0,314.14,390.26Z" transform="translate(-148.84 -218.35)"/><path class="cls-6" d="M232.36,401.48a25,25,0,1,0,0,35.35A25,25,0,0,0,232.36,401.48Z" transform="translate(-148.84 -218.35)"/><circle class="cls-7" cx="231.75" cy="200.8" r="25"/><path class="cls-8" d="M199.37,349.44a25.27,25.27,0,1,0-25.26,25.26A25.26,25.26,0,0,0,199.37,349.44Z" transform="translate(-148.84 -218.35)"/><path class="cls-4" d="M395.9,349.44a25.27,25.27,0,1,0,25.27-25.27A25.26,25.26,0,0,0,395.9,349.44Z" transform="translate(-148.84 -218.35)"/><path class="cls-5" d="M322.83,455.26a25.19,25.19,0,1,0-25.19,25.19A25.19,25.19,0,0,0,322.83,455.26Z" transform="translate(-148.84 -218.35)"/><circle class="cls-5" cx="210.56" cy="131.01" r="19.05"/><circle class="cls-7" cx="87.03" cy="131.01" r="19.05"/><path class="cls-5" d="M338.39,284.29a17.15,17.15,0,1,0,0,24.25A17.14,17.14,0,0,0,338.39,284.29Z" transform="translate(-148.84 -218.35)"/><path class="cls-5" d="M281.14,308.54a17.15,17.15,0,1,0-24.25,0A17.16,17.16,0,0,0,281.14,308.54Z" transform="translate(-148.84 -218.35)"/><path class="cls-6" d="M362.92,297.32a25,25,0,1,0,0-35.35A25,25,0,0,0,362.92,297.32Z" transform="translate(-148.84 -218.35)"/><circle class="cls-7" cx="65.84" cy="61.29" r="25"/><path class="cls-6" d="M395.9,349.36a25.27,25.27,0,1,0,25.27-25.27A25.27,25.27,0,0,0,395.9,349.36Z" transform="translate(-148.84 -218.35)"/><path class="cls-7" d="M199.37,349.36a25.27,25.27,0,1,0-25.26,25.27A25.27,25.27,0,0,0,199.37,349.36Z" transform="translate(-148.84 -218.35)"/><circle class="cls-5" cx="297.64" cy="243.54" r="25.19" transform="translate(-173.64 -184.42) rotate(-6.26)"/><path class="cls-5" d="M272.37,349.36a25.27,25.27,0,1,0,25.27-25.27A25.27,25.27,0,0,0,272.37,349.36Z" transform="translate(-148.84 -218.35)"/></svg>