<svg id="Capa_1" data-name="Capa 1" xmlns="http://www.w3.org/2000/svg" viewBox="0 0 297.59 262.1"><defs><style>.cls-1{fill:#751d61;}.cls-2{fill:#e52320;}.cls-3{fill:#ea5558;}.cls-4{fill:#a21916;}.cls-5{fill:#50267d;}</style></defs><circle class="cls-1" cx="210.56" cy="131.09" r="19.05"/><path class="cls-2" d="M256.89,486.05a17.14,17.14,0,1,0,0-24.24A17.14,17.14,0,0,0,256.89,486.05Z" transform="translate(-148.84 -289.9)"/><path class="cls-2" d="M314.14,461.81a17.14,17.14,0,1,0,24.25,0A17.13,17.13,0,0,0,314.14,461.81Z" transform="translate(-148.84 -289.9)"/><path class="cls-3" d="M232.36,473a25,25,0,1,0,0,35.35A25,25,0,0,0,232.36,473Z" transform="translate(-148.84 -289.9)"/><circle class="cls-4" cx="231.75" cy="200.8" r="25"/><path class="cls-5" d="M199.37,421a25.27,25.27,0,1,0-25.26,25.27A25.26,25.26,0,0,0,199.37,421Z" transform="translate(-148.84 -289.9)"/><path class="cls-1" d="M395.9,421a25.27,25.27,0,1,0,25.27-25.26A25.27,25.27,0,0,0,395.9,421Z" transform="translate(-148.84 -289.9)"/><path class="cls-2" d="M322.83,526.8A25.19,25.19,0,1,0,297.64,552,25.18,25.18,0,0,0,322.83,526.8Z" transform="translate(-148.84 -289.9)"/><circle class="cls-2" cx="210.56" cy="131.01" r="19.05"/><circle class="cls-4" cx="87.03" cy="131.01" r="19.05"/><path class="cls-2" d="M338.39,355.84a17.14,17.14,0,1,0,0,24.24A17.14,17.14,0,0,0,338.39,355.84Z" transform="translate(-148.84 -289.9)"/><path class="cls-2" d="M281.14,380.08a17.14,17.14,0,1,0-24.25,0A17.15,17.15,0,0,0,281.14,380.08Z" transform="translate(-148.84 -289.9)"/><path class="cls-3" d="M362.92,368.87a25,25,0,1,0,0-35.35A25,25,0,0,0,362.92,368.87Z" transform="translate(-148.84 -289.9)"/><circle class="cls-4" cx="65.84" cy="61.29" r="25"/><path class="cls-3" d="M395.9,420.91a25.27,25.27,0,1,0,25.27-25.27A25.26,25.26,0,0,0,395.9,420.91Z" transform="translate(-148.84 -289.9)"/><path class="cls-4" d="M199.37,420.91a25.27,25.27,0,1,0-25.26,25.26A25.26,25.26,0,0,0,199.37,420.91Z" transform="translate(-148.84 -289.9)"/><circle class="cls-2" cx="297.64" cy="315.09" r="25.19" transform="matrix(0.99, -0.11, 0.11, 0.99, -181.45, -255.54)"/><path class="cls-2" d="M272.37,420.91a25.27,25.27,0,1,0,25.27-25.27A25.26,25.26,0,0,0,272.37,420.91Z" transform="translate(-148.84 -289.9)"/></svg>