<svg id="Capa_1" data-name="Capa 1" xmlns="http://www.w3.org/2000/svg" viewBox="0 0 473.76 645.06"><defs><style>.cls-1{font-size:122.93px;fill:#12192c;letter-spacing:-0.02em;}.cls-1,.cls-3{font-family:Titillium-Bold, Titillium Bold;font-weight:700;}.cls-2{letter-spacing:0em;}.cls-3{font-size:58.93px;}.cls-3,.cls-7{fill:#a21916;}.cls-4{fill:#751d61;}.cls-5{fill:#e52320;}.cls-6{fill:#ea5558;}.cls-8{fill:#50267d;}</style></defs><text class="cls-1" transform="translate(39.58 551.7)">C<tspan class="cls-2" x="68.72" y="0">OMBE</tspan></text><text class="cls-3" transform="translate(157.09 630.33)">SALES</text><circle class="cls-4" cx="335.21" cy="208.69" r="30.33"/><path class="cls-5" d="M232.76,410.7a27.3,27.3,0,1,0,0-38.61A27.3,27.3,0,0,0,232.76,410.7Z" transform="translate(-60.76 -98.42)"/><path class="cls-5" d="M323.91,372.09a27.3,27.3,0,1,0,38.6,0A27.3,27.3,0,0,0,323.91,372.09Z" transform="translate(-60.76 -98.42)"/><path class="cls-6" d="M193.71,390a39.79,39.79,0,1,0,0,56.28A39.79,39.79,0,0,0,193.71,390Z" transform="translate(-60.76 -98.42)"/><circle class="cls-7" cx="368.95" cy="319.68" r="39.79"/><path class="cls-8" d="M141.2,307.1A40.22,40.22,0,1,0,101,347.33,40.22,40.22,0,0,0,141.2,307.1Z" transform="translate(-60.76 -98.42)"/><path class="cls-4" d="M454.07,307.1a40.23,40.23,0,1,0,40.23-40.22A40.23,40.23,0,0,0,454.07,307.1Z" transform="translate(-60.76 -98.42)"/><path class="cls-5" d="M337.74,475.57a40.1,40.1,0,1,0-40.1,40.1A40.1,40.1,0,0,0,337.74,475.57Z" transform="translate(-60.76 -98.42)"/><circle class="cls-5" cx="335.21" cy="208.57" r="30.33"/><circle class="cls-7" cx="138.55" cy="208.57" r="30.33"/><path class="cls-5" d="M362.51,203.39a27.29,27.29,0,1,0,0,38.6A27.29,27.29,0,0,0,362.51,203.39Z" transform="translate(-60.76 -98.42)"/><path class="cls-5" d="M271.37,242a27.3,27.3,0,1,0-38.61,0A27.29,27.29,0,0,0,271.37,242Z" transform="translate(-60.76 -98.42)"/><path class="cls-6" d="M401.56,224.13a39.79,39.79,0,1,0,0-56.27A39.8,39.8,0,0,0,401.56,224.13Z" transform="translate(-60.76 -98.42)"/><circle class="cls-7" cx="104.82" cy="97.58" r="39.79"/><path class="cls-6" d="M454.07,307a40.23,40.23,0,1,0,40.23-40.22A40.23,40.23,0,0,0,454.07,307Z" transform="translate(-60.76 -98.42)"/><path class="cls-7" d="M141.2,307A40.22,40.22,0,1,0,101,347.21,40.22,40.22,0,0,0,141.2,307Z" transform="translate(-60.76 -98.42)"/><circle class="cls-5" cx="297.64" cy="138.52" r="40.1" transform="translate(-74.09 -65.11) rotate(-6.26)"/><path class="cls-5" d="M257.42,307a40.22,40.22,0,1,0,40.22-40.22A40.22,40.22,0,0,0,257.42,307Z" transform="translate(-60.76 -98.42)"/></svg>